<svg xmlns="http://www.w3.org/2000/svg" width="450" height="450" viewBox="0 0 450 450">
  <defs>
    <style>
      .b{fill:#14161d}
    </style>
  </defs>
  <path d="M261.59 350.22c-3.96 0-8.04-.39-12.13-1.15-12.13-2.27-22.32-6.86-31.15-14.02-.46-.37-1.01-.56-1.58-.56-.4 0-.8.09-1.17.29-13.13 6.9-27.27 13.64-43.02 13.64-1.72 0-3.46-.08-5.16-.24-9.96-.95-21.43-3-30.99-11.03-1.62-1.36-3.96-1.64-5.63-1.64s-3.22.25-4.58.71c-11.19 3.76-21.67 5.58-32.03 5.58-5 0-10.04-.44-14.98-1.31-14.99-2.64-24.89-12.41-35.37-22.75-.79-.78-1.58-1.56-2.38-2.34-11.9-11.66-17.86-24.41-17.72-37.88.26-24.55 12.24-43.43 36.64-57.72 5.32-3.11 11.52-5.68 17.94-7.42 7.75-2.1 12.91-6.49 16.24-13.82 8.61-18.93 17.99-31.33 30.43-40.21 11.09-7.91 20.87-11.6 30.78-11.6 3.87 0 7.82.59 11.72 1.77 2.09.63 3.98.93 5.78.93 5.13 0 9.24-2.47 12.92-7.77 15.48-22.28 35.12-35.68 58.38-39.83 7.13-1.27 14.08-1.92 20.66-1.92 28.54 0 52.15 12.07 70.16 35.88.56.75 1.14 1.49 1.73 2.24 2.35 3.02 4.78 6.14 6.12 9.43 3.39 8.3 9.7 11.02 16.01 12.72 24.15 6.51 35.19 21.94 35.82 50.03.17 7.39 2.43 12.29 7.35 15.92 13.79 10.16 21.97 24.27 23.66 40.79 1.96 19.21-5.42 40.17-19.73 56.05-13.84 15.36-30.13 23.15-48.41 23.15-13.29 0-27.52-4.15-42.28-12.33-2.1-1.16-3.99-1.73-5.8-1.73-2.91 0-5.2 1.47-7.06 2.91-13.22 10.25-26.69 15.23-41.18 15.23Z" style="stroke-width:0;fill:#fff"/>
  <path d="M261.22 372.51c-17.21 0-33.07-5.62-43.88-15.47-14.25 9.02-29.24 13.59-44.59 13.59a80.4 80.4 0 0 1-7.72-.37c-12.44-1.19-22.83-4.98-31.77-11.58-.82-.61-2.39-1.03-3.8-1.03-.54 0-1.03.06-1.38.18-10.77 3.5-21.49 5.28-31.85 5.28-17.99 0-35.26-5.31-51.32-15.8-20.2-13.18-33.54-30.2-39.66-50.59C-3.76 266.7 9.92 228 36.4 208.61c11.65-8.53 23.87-14.52 37.36-18.32 1-.28 2.8-2.41 3.73-4.83 11.47-29.95 31.46-49.07 59.4-56.82 7.53-2.09 15.44-2.22 23.82-2.35 3.42-.05 6.95-.11 10.53-.31 15.46-26 41.26-42.24 74.7-47 6.95-.99 13.79-1.49 20.33-1.49 35.24 0 63.19 14.02 83.07 41.68 9.17 12.76 18.36 20.25 31.72 25.87 21.37 8.98 33.47 28.17 35.01 55.49.42 7.52 2.94 13.22 8.69 19.67 22.11 24.81 28.16 53.33 17.98 84.77-9.96 30.76-42.4 63.46-82.89 63.46-4.23 0-8.53-.36-12.79-1.06-11.57-1.91-23.61-4.5-33.17-12.98-20.09 14.93-39.65 18.11-52.67 18.11Zm-44.49-38.02c.56 0 1.12.19 1.58.56 8.83 7.16 19.02 11.75 31.15 14.02 4.09.77 8.17 1.15 12.13 1.15 14.49 0 27.96-4.98 41.18-15.23 1.86-1.44 4.15-2.91 7.06-2.91 1.8 0 3.7.56 5.8 1.73 14.76 8.18 28.99 12.33 42.28 12.33 18.28 0 34.56-7.79 48.41-23.15 14.31-15.88 21.69-36.84 19.73-56.05-1.68-16.52-9.86-30.63-23.66-40.79-4.92-3.62-7.19-8.53-7.35-15.92-.63-28.09-11.68-43.52-35.82-50.03-6.31-1.7-12.62-4.42-16.01-12.72-1.34-3.29-3.77-6.41-6.12-9.43-.58-.75-1.16-1.49-1.72-2.24-18.02-23.81-41.62-35.88-70.16-35.88-6.59 0-13.54.64-20.66 1.92-23.26 4.15-42.9 17.55-58.38 39.83-3.68 5.3-7.78 7.77-12.92 7.77-1.8 0-3.69-.3-5.78-.93-3.91-1.17-7.85-1.77-11.72-1.77-9.91 0-19.69 3.68-30.78 11.6-12.44 8.88-21.83 21.28-30.43 40.21-3.33 7.32-8.49 11.71-16.24 13.82-6.42 1.74-12.62 4.31-17.94 7.42-24.4 14.29-36.38 33.17-36.64 57.72-.14 13.47 5.82 26.22 17.72 37.88.79.78 1.59 1.56 2.38 2.34 10.48 10.34 20.38 20.11 35.37 22.75 4.94.87 9.98 1.31 14.98 1.31 10.36 0 20.84-1.83 32.03-5.58 1.36-.46 2.98-.71 4.58-.71 1.68 0 4.02.29 5.63 1.64 9.56 8.03 21.03 10.08 30.99 11.03 1.71.16 3.44.24 5.16.24 15.74 0 29.88-6.74 43.02-13.64.37-.19.77-.29 1.17-.29Z" class="b"/>
  <path d="M266.28 79.99c32.23 0 60.61 12.22 81.04 40.64 9.08 12.63 18.37 20.65 32.78 26.71 22.28 9.36 32.16 29.78 33.48 53.33.5 8.85 3.79 15 9.31 21.19 21.46 24.07 27.33 51.91 17.47 82.35-8.84 27.3-39.28 61.74-80.51 61.74-4.03 0-8.16-.33-12.39-1.03-12.21-2.01-24.25-4.73-33.41-13.78-17.03 13.2-35.79 18.88-52.84 18.88s-33.42-6.06-43.59-16.14c-13.87 9.15-28.73 14.26-44.88 14.26-2.46 0-4.95-.12-7.48-.36-11.13-1.06-21.38-4.35-30.51-11.11-1.3-.96-3.4-1.52-5.29-1.52-.78 0-1.53.1-2.16.3-10.55 3.43-20.93 5.15-31.07 5.15-17.43 0-34.18-5.09-49.95-15.39-18.11-11.82-32.27-28-38.64-49.21-8.78-29.26 4.98-66.88 30.24-85.39 11.13-8.16 23.22-14.17 36.56-17.92 2.25-.63 4.43-3.84 5.39-6.34 10.55-27.54 28.97-47.33 57.73-55.31 10.64-2.95 22.43-1.82 35.16-2.65 15.46-26.83 41.65-42.4 73.57-46.94 6.79-.97 13.46-1.46 19.98-1.46m-93.04 66.96c-1.54 0-3.21-.27-5.05-.83-4.28-1.29-8.42-1.87-12.44-1.87-11.63 0-22.23 4.92-32.24 12.06-14.71 10.49-23.97 25.17-31.26 41.2-3.01 6.62-7.48 10.5-14.62 12.44-6.42 1.74-12.81 4.32-18.55 7.68-22.86 13.39-37.58 32.48-37.87 59.84-.16 15.71 7.38 28.82 18.47 39.68 11.31 11.08 22.12 22.79 39.07 25.77a88.2 88.2 0 0 0 15.41 1.35c11.13 0 22-2.08 32.83-5.71 1.07-.36 2.44-.58 3.78-.58 1.6 0 3.14.31 4.02 1.06 9.43 7.93 20.77 10.5 32.37 11.6 1.82.17 3.62.26 5.4.26 15.73 0 29.94-6.44 44.18-13.93 9.61 7.79 20.42 12.32 32.27 14.54 4.3.81 8.5 1.2 12.59 1.2 15.63 0 29.76-5.7 42.72-15.75 1.91-1.48 3.58-2.39 5.53-2.39 1.34 0 2.82.43 4.58 1.41 15.13 8.39 29.76 12.65 43.5 12.65 18.7 0 35.77-7.89 50.27-23.98 26.66-29.58 29.94-75.29-4.3-100.51-4.72-3.48-6.21-8.15-6.34-13.97-.65-29.1-12.41-45.57-37.67-52.38-6.72-1.81-11.57-4.46-14.35-11.26-1.81-4.45-5.21-8.31-8.17-12.22-19.11-25.25-43.6-36.87-72.16-36.87-6.81 0-13.85.66-21.1 1.95-25.76 4.59-45.25 19.64-60 40.86-3.05 4.38-6.38 6.69-10.86 6.69M266.28 75c-6.65 0-13.61.51-20.68 1.51-33.72 4.79-59.87 21.04-75.8 47.04-3.08.14-6.14.19-9.11.24-8.54.13-16.6.26-24.45 2.44-28.75 7.98-49.29 27.61-61.06 58.34-.59 1.54-1.7 2.99-2.25 3.37-13.72 3.88-26.15 9.98-38 18.66-27.28 19.97-41.37 59.87-32.07 90.83 6.29 20.96 19.98 38.44 40.69 51.96 16.48 10.75 34.2 16.2 52.69 16.2 10.62 0 21.6-1.82 32.62-5.4 0 0 .19-.06.61-.06 1.04 0 2.04.35 2.31.54 9.31 6.88 20.11 10.83 33.02 12.06 2.66.25 5.33.38 7.95.38 15.25 0 30.15-4.37 44.33-12.99 11.21 9.49 27.05 14.87 44.14 14.87 13.05 0 32.48-3.1 52.55-17.43 9.76 7.88 21.55 10.4 32.88 12.26a82 82 0 0 0 13.2 1.09c25.19 0 44.18-11.88 55.69-21.85 13.74-11.91 24.53-27.71 29.59-43.34 5.18-15.99 6.24-31.51 3.14-46.12-3.1-14.62-10.38-28.44-21.63-41.07-5.34-5.99-7.67-11.25-8.06-18.15-.74-13.18-3.96-24.7-9.56-34.23-6.26-10.65-15.34-18.53-26.97-23.42-13.07-5.49-21.67-12.51-30.66-25.02-10.39-14.45-23.17-25.4-37.98-32.56-13.96-6.74-29.81-10.16-47.12-10.16Zm-93.05 76.93c5.94 0 10.84-2.89 14.97-8.84 15.08-21.71 34.18-34.76 56.77-38.79 6.98-1.25 13.79-1.88 20.22-1.88 13.65 0 26.22 2.84 37.37 8.43 11.52 5.78 21.88 14.68 30.79 26.46.57.75 1.16 1.5 1.74 2.26 2.35 3.02 4.57 5.87 5.79 8.84 3.81 9.33 11.07 12.41 17.67 14.19 11.57 3.12 19.85 8.33 25.3 15.92 5.53 7.7 8.37 18.09 8.68 31.75.11 5.11 1.11 12.52 8.37 17.87 13.21 9.73 21.04 23.23 22.65 39.04 1.89 18.53-5.25 38.76-19.1 54.13-13.35 14.81-29.01 22.33-46.55 22.33-12.86 0-26.68-4.04-41.07-12.02-2.48-1.37-4.77-2.04-7.01-2.04-3.69 0-6.53 1.84-8.6 3.44-12.76 9.89-25.73 14.7-39.65 14.7-3.8 0-7.73-.37-11.67-1.11-11.71-2.19-21.54-6.61-30.04-13.5a5.004 5.004 0 0 0-5.49-.54c-12.86 6.76-26.68 13.35-41.85 13.35-1.64 0-3.3-.08-4.93-.23-9.58-.91-20.59-2.86-29.62-10.45-2.19-1.84-5.15-2.23-7.25-2.23-1.86 0-3.77.3-5.37.84-10.93 3.67-21.15 5.45-31.23 5.45-4.85 0-9.74-.43-14.54-1.27-14.22-2.51-23.85-12.01-34.05-22.07l-2.38-2.35c-11.4-11.17-17.11-23.3-16.97-36.07.25-23.6 11.83-41.79 35.4-55.6 5.13-3 11.12-5.48 17.33-7.17 8.53-2.31 14.2-7.14 17.86-15.19 8.41-18.51 17.55-30.6 29.61-39.21 10.64-7.59 19.96-11.13 29.33-11.13 3.63 0 7.33.56 11 1.66 2.32.7 4.45 1.04 6.5 1.04Z" style="stroke-width:0;fill:#f770ef"/>
  <path d="M284.5 274.71c-9.36-1.22-17.17-4.66-21.06-13.51-.81-1.85.62-4.68 1.01-7.06 1.98 1.17 4.88 1.87 5.78 3.6 2.64 5.05 5.64 8.84 11.92 9.21 7.06.42 11.26-3.47 14.49-8.87 1.6-2.68 2.74-6.64 6.53-4.02 1.18.81.68 5.64-.47 7.92-3.75 7.4-10.11 11.62-18.2 12.73m-56.39-23.37c-.03 4.84-4.5 8.8-9.96 8.81-7.16.02-14.11-5.66-14.25-11.66-.12-5.31 4.34-9.31 10.23-9.15 7.18.19 14.02 6.06 13.98 12m143.19-2c-.12 4.73-3.37 6.96-8.62 7.03-6.72.09-13.2-5.12-13.26-10.68-.06-4.81 4.24-8.34 10.16-8.34 6.61 0 11.78 4.9 11.73 12Zm-136.15-9.06c-1.46-.91-2.85-1.96-4.38-2.7-7.53-3.66-15.02-7.41-22.69-10.77-3.33-1.46-7-3.07-5.12-6.89.95-1.92 5.55-3.44 8.07-2.95 9.29 1.8 17.02 6.67 22.41 14.63 1.51 2.23 2.3 4.96 3.41 7.46-.57.41-1.14.82-1.7 1.23Zm100.85 1.1c-.76-9.06 11.49-23.89 21.36-24.12 1.82-.04 4.7 1.29 5.23 2.69.53 1.39-.75 4.43-2.17 5.42-8.04 5.59-16.35 10.78-24.42 16Z" class="b"/>
</svg>
